<svg width="16" height="16" xmlns="http://www.w3.org/2000/svg">
  <path fill-rule="evenodd" clip-rule="evenodd" d="M5 1C4.44772 1 4 1.44772 4 2H2.5C1.11929 2 0 3.11929 0 4.5V12.5C0 13.8807 1.11929 15 2.5 15H13.5C14.8807 15 16 13.8807 16 12.5V4.5C16 3.11929 14.8807 2 13.5 2H12C12 1.44772 11.5523 1 11 1C10.4477 1 10 1.44772 10 2H9C9 1.44772 8.55229 1 8 1C7.44772 1 7 1.44772 7 2H6C6 1.44772 5.55228 1 5 1ZM1 4.5C1 4.32468 1.03008 4.15639 1.08535 4H14.9146C14.9699 4.15639 15 4.32468 15 4.5V12.5C15 13.3284 14.3284 14 13.5 14H2.5C1.67157 14 1 13.3284 1 12.5V4.5ZM12 11V9H10V11H12Z"></path>
  <path opacity="0.4" fill-rule="evenodd" clip-rule="evenodd" d="M7 6H9V8H7V6ZM10 6H12V8H10V6ZM6 9H4V11H6V9ZM7 9H9V11H7V9ZM6 6H4V8H6V6Z"></path>
</svg>