<svg width="16" height="16" viewBox="0 0 16 16" xmlns="http://www.w3.org/2000/svg">
  <path d="M3 3.5C3 2.11929 4.11929 1 5.5 1H10.75C11.0261 1 11.25 1.22386 11.25 1.5C11.25 1.77614 11.0261 2 10.75 2H5.5C4.67157 2 4 2.67157 4 3.5V12.5C4 13.3284 4.67157 14 5.5 14H10.5C11.3284 14 12 13.3284 12 12.5V12C12 11.7239 12.2239 11.5 12.5 11.5C12.7761 11.5 13 11.7239 13 12V12.5C13 13.8807 11.8807 15 10.5 15H5.5C4.11929 15 3 13.8807 3 12.5V3.5Z"></path>
  <path fill-rule="evenodd" clip-rule="evenodd" d="M12.379 2.91391C12.9953 2.2976 13.971 2.22825 14.6683 2.75121C15.5099 3.38243 15.6091 4.60794 14.8799 5.36628L9.46287 11H7V8.29289L12.379 2.91391ZM14.0683 3.55121C13.7691 3.32684 13.3505 3.35659 13.0861 3.62101L13.0607 3.64645L14.1239 4.70972L14.1591 4.67317C14.4719 4.34782 14.4294 3.82203 14.0683 3.55121ZM13.4307 5.43069L12.3536 4.35355L8 8.70711V10H9.03713L13.4307 5.43069Z"></path>
</svg>