<svg width="16" height="16" viewBox="0 0 16 16" xmlns="http://www.w3.org/2000/svg">
  <path fill-rule="evenodd" clip-rule="evenodd" d="M3 2C2.44772 2 2 2.44772 2 3V6C2 6.55228 2.44772 7 3 7H6C6.55228 7 7 6.55228 7 6V3C7 2.44772 6.55228 2 6 2H3ZM3 3H6V6H3V3Z"></path>
  <path fill-rule="evenodd" clip-rule="evenodd" d="M2 10C2 9.44771 2.44772 9 3 9H6C6.55228 9 7 9.44771 7 10V13C7 13.5523 6.55228 14 6 14H3C2.44772 14 2 13.5523 2 13V10ZM6 10H3V13H6V10Z"></path>
  <path fill-rule="evenodd" clip-rule="evenodd" d="M9 10C9 9.44771 9.44771 9 10 9H13C13.5523 9 14 9.44771 14 10V13C14 13.5523 13.5523 14 13 14H10C9.44771 14 9 13.5523 9 13V10ZM13 10H10V13H13V10Z"></path>
  <path fill-rule="evenodd" clip-rule="evenodd" d="M9 3C9 2.44772 9.44771 2 10 2H13C13.5523 2 14 2.44772 14 3V6C14 6.55228 13.5523 7 13 7H10C9.44771 7 9 6.55228 9 6V3ZM13 3H10V6H13V3Z"></path>
</svg>