<svg width="1024" height="1024" viewBox="0 0 1024 1024" fill="none" xmlns="http://www.w3.org/2000/svg">
<g clip-path="url(#clip0_1_2)">
<rect width="1024" height="1024" rx="160" fill="#EF3939"/>
<path d="M503.808 118.286C507.789 112.599 516.211 112.599 520.192 118.286L703.694 380.433C708.333 387.06 703.592 396.167 695.501 396.167H638.704C630.046 396.167 625.479 406.422 631.271 412.857L757.604 553.228C763.396 559.663 758.829 569.917 750.171 569.917H678.143C669.664 569.917 665.033 579.806 670.46 586.319L787.915 727.265C793.342 733.779 788.711 743.667 780.232 743.667H579.917C574.394 743.667 569.917 748.144 569.917 753.667V878.458C569.917 883.981 565.44 888.458 559.917 888.458H464.083C458.56 888.458 454.083 883.981 454.083 878.458V753.667C454.083 748.144 449.606 743.667 444.083 743.667H243.768C235.289 743.667 230.658 733.779 236.085 727.265L353.54 586.319C358.967 579.806 354.336 569.917 345.857 569.917H273.829C265.171 569.917 260.604 559.663 266.396 553.228L392.729 412.857C398.521 406.422 393.954 396.167 385.296 396.167H328.499C320.409 396.167 315.667 387.06 320.306 380.433L503.808 118.286Z" fill="white"/>
</g>
<defs>
<clipPath id="clip0_1_2">
<rect width="1024" height="1024" rx="160" fill="white"/>
</clipPath>
</defs>
</svg>
